<svg width="17" height="17" viewBox="0 0 17 17" fill="none" xmlns="http://www.w3.org/2000/svg">
<path d="M14.5104 2.48959C12.905 0.884163 10.7704 0 8.5 0C6.22961 0 4.09501 0.884163 2.48959 2.48959C0.884163 4.09501 0 6.22961 0 8.5C0 10.7704 0.884163 12.905 2.48959 14.5104C4.09501 16.1158 6.22961 17 8.5 17C10.7704 17 12.905 16.1158 14.5104 14.5104C16.1158 12.905 17 10.7704 17 8.5C17 6.22961 16.1158 4.09501 14.5104 2.48959ZM3.68905 14.254C3.96972 11.839 6.04608 9.97443 8.5 9.97443C9.79362 9.97443 11.0101 10.4784 11.9251 11.3933C12.6981 12.1665 13.1857 13.1759 13.3111 14.2539C12.0076 15.3456 10.3293 16.0039 8.5 16.0039C6.67072 16.0039 4.99253 15.3457 3.68905 14.254ZM8.5 8.9485C7.07655 8.9485 5.91833 7.79028 5.91833 6.36683C5.91833 4.94324 7.07655 3.78516 8.5 3.78516C9.92345 3.78516 11.0817 4.94324 11.0817 6.36683C11.0817 7.79028 9.92345 8.9485 8.5 8.9485ZM14.1684 13.4119C13.9146 12.3885 13.3853 11.445 12.6294 10.6891C12.0172 10.0769 11.293 9.61762 10.5031 9.32982C11.4526 8.68586 12.0778 7.59794 12.0778 6.36683C12.0778 4.3941 10.4727 2.78906 8.5 2.78906C6.52727 2.78906 4.92223 4.3941 4.92223 6.36683C4.92223 7.59859 5.5479 8.6869 6.49821 9.33073C5.77151 9.59557 5.09901 10.005 4.52042 10.5441C3.68256 11.3243 3.10073 12.3193 2.83096 13.4111C1.68843 12.094 0.996094 10.3764 0.996094 8.5C0.996094 4.36232 4.36232 0.996094 8.5 0.996094C12.6377 0.996094 16.0039 4.36232 16.0039 8.5C16.0039 10.3768 15.3113 12.0948 14.1684 13.4119Z" fill="#FF35F7"/>
</svg>
