<svg width="18" height="17" viewBox="0 0 18 17" fill="none" xmlns="http://www.w3.org/2000/svg">
<path d="M16.3303 7.36351C16.2623 5.42678 15.478 3.61573 14.1009 2.23857C12.6574 0.794833 10.739 0 8.69933 0C4.57979 0 1.21375 3.27893 1.06866 7.36351C0.440002 7.64288 0 8.27209 0 9.00339V11.0181C0 12.0074 0.804821 12.8125 1.79441 12.8125C2.43472 12.8125 2.95545 12.2918 2.95545 11.6515V8.36975C2.95545 7.76856 2.49436 7.27834 1.90816 7.22008C2.12455 3.6615 5.08693 0.832286 8.69933 0.832286C10.517 0.832286 12.2263 1.54084 13.5127 2.82728C14.694 4.00857 15.3854 5.5483 15.4894 7.22036C14.9038 7.27917 14.4435 7.76911 14.4435 8.36975V11.6512C14.4435 12.2574 14.9118 12.7506 15.5049 12.8019V13.6312C15.5049 14.565 14.7451 15.3246 13.8112 15.3246H12.557C12.4954 15.1487 12.3988 14.9861 12.2635 14.8513C12.0263 14.613 11.71 14.4818 11.3732 14.4818H10.0804C9.89477 14.4818 9.71666 14.5212 9.55354 14.5972C9.10854 14.8017 8.82113 15.2505 8.82113 15.7408C8.82113 16.0775 8.95235 16.3938 9.19011 16.6305C9.42786 16.8688 9.74413 17 10.0804 17H11.3732C11.9092 17 12.3816 16.6535 12.5578 16.1569H13.8112C15.2042 16.1569 16.3372 15.0239 16.3372 13.6312V12.6538C16.962 12.3728 17.3987 11.7458 17.3987 11.0175V9.00284C17.3987 8.27209 16.9587 7.64288 16.3303 7.36351ZM2.12288 8.36975V11.6512C2.12288 11.8323 1.97557 11.9799 1.79413 11.9799C1.26369 11.9799 0.832009 11.5482 0.832009 11.0178V9.00312C0.832009 8.4724 1.26369 8.04099 1.79413 8.04099C1.97557 8.04099 2.12288 8.18859 2.12288 8.36975ZM11.7907 15.8301C11.7494 16.0259 11.5735 16.1683 11.3729 16.1683H10.0801C9.96635 16.1683 9.85954 16.1239 9.77798 16.0423C9.69752 15.9621 9.65313 15.8551 9.65313 15.7413C9.65313 15.5751 9.75051 15.4234 9.9031 15.3532C9.95747 15.3277 10.0171 15.3146 10.0801 15.3146H11.3729C11.4867 15.3146 11.5935 15.3587 11.6748 15.4403C11.7552 15.5205 11.7996 15.6276 11.7996 15.7413C11.7999 15.7718 11.7965 15.8023 11.7907 15.8301ZM16.5664 11.0178C16.5664 11.5482 16.1347 11.9799 15.6043 11.9799C15.4231 11.9799 15.2755 11.8326 15.2755 11.6512V8.36975C15.2755 8.18859 15.4228 8.04099 15.6043 8.04099C16.1347 8.04099 16.5664 8.47267 16.5664 9.00312V11.0178Z" fill="#FF35F7"/>
<path d="M11.394 11.1612C12.3664 11.1612 13.1573 10.37 13.1573 9.39787V5.8049C13.1573 5.33494 12.9737 4.89216 12.6402 4.55869C12.3067 4.22522 11.8642 4.04156 11.394 4.04156H6.00467C5.03228 4.04156 4.24133 4.83251 4.24133 5.8049V9.39787C4.24133 10.3703 5.03228 11.1612 6.00467 11.1612H6.03768V12.0923C6.03768 12.4474 6.24936 12.7625 6.57673 12.8954C6.68243 12.9379 6.79229 12.9589 6.90104 12.9589C7.1277 12.9589 7.34853 12.8691 7.51027 12.7018L9.05916 11.1612H11.394ZM8.59446 10.4499L6.91824 12.1169C6.91075 12.1247 6.9052 12.1305 6.88939 12.1236C6.87024 12.1158 6.87024 12.1034 6.87024 12.0923V10.7451C6.87024 10.5154 6.68409 10.3289 6.4541 10.3289H6.00495C5.49143 10.3289 5.0739 9.91111 5.0739 9.39787V5.8049C5.0739 5.29138 5.49143 4.87385 6.00495 4.87385H11.3943C11.6423 4.87385 11.8756 4.97095 12.0521 5.14712C12.2285 5.32356 12.3253 5.55716 12.3253 5.8049V9.39787C12.3253 9.91139 11.9075 10.3289 11.3943 10.3289H8.88798C8.77784 10.3289 8.67242 10.3725 8.59446 10.4499Z" fill="#FF35F7"/>
<path d="M6.67767 7.05389C6.33921 7.05389 6.06372 7.32966 6.06372 7.66784C6.06372 8.00603 6.33948 8.28179 6.67767 8.28179C7.01641 8.28179 7.29217 8.00603 7.29217 7.66784C7.29217 7.32966 7.01669 7.05389 6.67767 7.05389Z" fill="#FF35F7"/>
<path d="M8.69903 7.05389C8.36057 7.05389 8.08508 7.32966 8.08508 7.66784C8.08508 8.00603 8.36085 8.28179 8.69903 8.28179C9.03805 8.28179 9.31354 8.00603 9.31354 7.66784C9.31354 7.32966 9.03805 7.05389 8.69903 7.05389Z" fill="#FF35F7"/>
<path d="M10.7205 7.05389C10.3821 7.05389 10.1066 7.32966 10.1066 7.66784C10.1066 8.00603 10.3823 8.28179 10.7205 8.28179C11.0593 8.28179 11.335 8.00603 11.335 7.66784C11.335 7.32966 11.0593 7.05389 10.7205 7.05389Z" fill="#FF35F7"/>
</svg>
