<svg width="11" height="15" viewBox="0 0 11 15" fill="none" xmlns="http://www.w3.org/2000/svg">
<path d="M5.44671 0C4.65106 0 3.888 0.31607 3.32539 0.87868C2.76279 1.44129 2.44672 2.20435 2.44672 3V3.5H2.03172C1.61077 3.49956 1.20588 3.66148 0.901325 3.95207C0.596771 4.24265 0.416025 4.6395 0.396716 5.06L0.00171607 13.285C-0.00840966 13.5062 0.026354 13.7271 0.103912 13.9345C0.181469 14.1419 0.300214 14.3314 0.45299 14.4916C0.605765 14.6519 0.789407 14.7796 0.992847 14.8669C1.19629 14.9543 1.41531 14.9996 1.63672 15H9.25671C9.47812 14.9996 9.69714 14.9543 9.90058 14.8669C10.104 14.7796 10.2877 14.6519 10.4404 14.4916C10.5932 14.3314 10.712 14.1419 10.7895 13.9345C10.8671 13.7271 10.9018 13.5062 10.8917 13.285L10.4967 5.06C10.4774 4.6395 10.2967 4.24265 9.9921 3.95207C9.68755 3.66148 9.28265 3.49956 8.86171 3.5H8.44671V3C8.44671 2.20435 8.13064 1.44129 7.56803 0.87868C7.00542 0.31607 6.24236 0 5.44671 0ZM3.44671 3C3.44671 2.46957 3.65743 1.96086 4.0325 1.58579C4.40757 1.21071 4.91628 1 5.44671 1C5.97715 1 6.48585 1.21071 6.86093 1.58579C7.236 1.96086 7.44671 2.46957 7.44671 3V3.5H3.44671V3ZM9.49671 5.105L9.89171 13.335C9.89485 13.421 9.88101 13.5068 9.85098 13.5874C9.82095 13.6681 9.77533 13.742 9.71671 13.805C9.65686 13.8665 9.58535 13.9154 9.50636 13.9488C9.42737 13.9823 9.3425 13.9997 9.25671 14H1.63672C1.55093 13.9997 1.46605 13.9823 1.38707 13.9488C1.30808 13.9154 1.23657 13.8665 1.17672 13.805C1.1181 13.742 1.07248 13.6681 1.04245 13.5874C1.01242 13.5068 0.998581 13.421 1.00172 13.335L1.39672 5.105C1.40443 4.94184 1.47473 4.78793 1.59298 4.67526C1.71124 4.56259 1.86837 4.49982 2.03172 4.5H8.86171C9.02505 4.49982 9.18218 4.56259 9.30044 4.67526C9.4187 4.78793 9.489 4.94184 9.49671 5.105Z" fill="#FF35F7"/>
</svg>
