<svg width="10" height="17" viewBox="0 0 10 17" fill="none" xmlns="http://www.w3.org/2000/svg">
<path d="M5.61248 7.43776V3.66045C6.42051 3.79675 7.18243 4.12831 7.83382 4.62623C7.96367 4.71528 8.11604 4.76359 8.27379 4.76572C8.77921 4.76572 9.1913 4.35901 9.19665 3.85359C9.19771 3.63684 9.11294 3.42865 8.96057 3.27412C8.01946 2.46821 6.83904 1.99284 5.60175 1.92202V0.65574C5.60175 0.294089 5.3088 0.0011354 4.94715 0.0011354C4.93964 7.28933e-05 4.93211 7.28933e-05 4.9246 7.28933e-05C4.55761 -0.00530605 4.25499 0.28768 4.24961 0.65574V1.87908C1.83513 2.05078 0.19329 3.54241 0.19329 5.52764C0.19329 7.96357 2.26438 8.63966 4.24961 9.17619V13.4686C3.20224 13.328 2.21501 12.8934 1.40588 12.2131C1.25351 12.0918 1.06461 12.0242 0.869311 12.02C0.374614 12.0543 -0.00632858 12.4685 7.96681e-05 12.9643C-0.000982839 13.181 0.0837851 13.3892 0.236155 13.5438C1.34468 14.5418 2.76977 15.1159 4.2603 15.1641V16.3446C4.2603 16.3521 4.26137 16.3596 4.26137 16.3671C4.27853 16.7341 4.59081 17.0174 4.95781 16.9992C5.31946 16.9992 5.61241 16.7062 5.61241 16.3446V15.1427C8.54198 14.9496 9.72239 13.1682 9.72239 11.2795C9.72246 8.74697 7.59774 7.97433 5.61248 7.43776ZM4.26037 7.09437C3.09068 6.75098 2.17855 6.39687 2.17855 5.39887C2.17855 4.40088 3.00485 3.68189 4.26037 3.58534V7.09437ZM5.61248 13.4901V9.58399C6.8251 9.92738 7.7694 10.3888 7.75868 11.5156C7.75868 12.3311 7.20066 13.2969 5.61248 13.4901Z" fill="#FF35F7"/>
</svg>
