<svg width="16" height="14" viewBox="0 0 16 14" fill="none" xmlns="http://www.w3.org/2000/svg">
<path d="M14.8425 6.15947L9.51247 0.2608C9.36032 0.092422 9.15754 0 8.94131 0C8.72485 0 8.52218 0.0925548 8.37003 0.2608L7.88611 0.796476C7.73408 0.964588 7.65033 1.18914 7.65033 1.42856C7.65033 1.66785 7.73408 1.89996 7.88611 2.06807L10.9956 5.51677H1.11668C0.67127 5.51677 0.319336 5.90266 0.319336 6.39571V7.15301C0.319336 7.64606 0.67127 8.07086 1.11668 8.07086H11.0308L7.88623 11.5388C7.7342 11.7072 7.65044 11.9256 7.65044 12.165C7.65044 12.4042 7.7342 12.6258 7.88623 12.7941L8.37015 13.328C8.5223 13.4964 8.72497 13.5882 8.94143 13.5882C9.15766 13.5882 9.36044 13.4952 9.51259 13.3268L14.8426 7.42828C14.9951 7.25938 15.079 7.0339 15.0784 6.79421C15.0789 6.55373 14.9951 6.32812 14.8425 6.15947Z" fill="white"/>
</svg>
