<svg width="16" height="16" viewBox="0 0 16 16" fill="none" xmlns="http://www.w3.org/2000/svg">
<path d="M0 4C0 1.79086 1.79086 0 4 0H12C14.2091 0 16 1.79086 16 4V12C16 14.2091 14.2091 16 12 16H4C1.79086 16 0 14.2091 0 12V4Z" fill="#C913CD"/>
<path d="M12.502 5.22597C12.201 4.92458 11.7123 4.92477 11.4109 5.22597L6.50003 10.137L4.31737 7.95437C4.01598 7.65298 3.52743 7.65298 3.22604 7.95437C2.92465 8.25576 2.92465 8.74431 3.22604 9.0457L5.95426 11.7739C6.10486 11.9245 6.30233 12 6.49982 12C6.69732 12 6.89498 11.9247 7.04558 11.7739L12.502 6.31727C12.8034 6.01609 12.8034 5.52734 12.502 5.22597Z" fill="white"/>
</svg>
