<svg width="30" height="35" viewBox="0 0 30 35" fill="none" xmlns="http://www.w3.org/2000/svg">
<path d="M12.5447 2.10249C12.5215 2.24562 12.5107 2.39048 12.5126 2.53541L12.5126 27.2138L12.2623 26.6757C12.0134 26.1497 11.6746 25.6712 11.2612 25.2616L4.34073 18.3411C3.47066 17.4297 2.071 17.2766 1.02441 17.9782C-0.0908569 18.7949 -0.33301 20.361 0.483632 21.4763C0.549646 21.5664 0.621603 21.652 0.699036 21.7325L13.2134 34.2469C14.1903 35.2249 15.7751 35.2257 16.7531 34.2488C16.7537 34.2482 16.7544 34.2475 16.755 34.2469L29.2694 21.7325C30.2454 20.7537 30.2433 19.169 29.2645 18.1929C29.1874 18.1161 29.1055 18.0444 29.0191 17.9782C27.9725 17.2765 26.5729 17.4297 25.7028 18.3411L18.7698 25.2491C18.4022 25.6163 18.094 26.0385 17.8563 26.5005L17.5184 27.2514L17.5184 2.67314C17.5659 1.39457 16.6727 0.272811 15.416 0.032615C14.0515 -0.188656 12.766 0.738037 12.5447 2.10249Z" fill="white"/>
</svg>
