<svg width="50" height="50" viewBox="0 0 50 50" fill="none" xmlns="http://www.w3.org/2000/svg">
<path d="M43.6108 0H6.38916C2.86611 0 0 2.86621 0 6.38926V43.6108C0 47.1338 2.86611 50 6.38916 50H43.6108C47.1339 50 50 47.1338 50 43.6107V6.38926C50 2.86621 47.1339 0 43.6108 0ZM47.0549 43.6108C47.0549 45.51 45.5099 47.0549 43.6108 47.0549H6.38916C4.49004 47.0549 2.94502 45.5099 2.94502 43.6108V38.2391L12.6379 29.9919C12.9916 29.6909 13.5076 29.6881 13.8646 29.9846L19.9363 35.0264C20.5218 35.5124 21.3812 35.4726 21.9191 34.934L36.3458 20.4854C36.6065 20.2241 36.9105 20.1987 37.0692 20.2068C37.2274 20.2149 37.5277 20.2714 37.7604 20.558L47.055 32.0023L47.0549 43.6108ZM47.0549 27.3306L40.0465 18.7011C39.3515 17.8452 38.3213 17.322 37.2201 17.2654C36.1197 17.2098 35.0407 17.624 34.2617 18.4043L20.7844 31.9024L15.7463 27.7189C14.2854 26.5059 12.1757 26.5185 10.7294 27.749L2.94502 34.3723V6.38926C2.94502 4.49014 4.49004 2.94512 6.38916 2.94512H43.6108C45.51 2.94512 47.0549 4.49014 47.0549 6.38926V27.3306Z" fill="#CACACA"/>
<path d="M15.7397 6.15161C11.8242 6.15161 8.63882 9.33716 8.63882 13.2525C8.63882 17.1679 11.8243 20.3534 15.7397 20.3534C19.6551 20.3534 22.8406 17.1679 22.8406 13.2525C22.8406 9.33706 19.6552 6.15161 15.7397 6.15161ZM15.7397 17.4084C13.4481 17.4084 11.5838 15.544 11.5838 13.2525C11.5838 10.9609 13.4481 9.09663 15.7397 9.09663C18.0313 9.09663 19.8956 10.961 19.8956 13.2525C19.8956 15.544 18.0313 17.4084 15.7397 17.4084Z" fill="#CACACA"/>
</svg>
