<svg width="12" height="20" viewBox="0 0 12 20" fill="none" xmlns="http://www.w3.org/2000/svg">
<path d="M11.0532 9.38779L2.61708 0.951864C2.42196 0.756593 2.1615 0.649017 1.88378 0.649017C1.60605 0.649017 1.34559 0.756593 1.15047 0.951864L0.529212 1.57297C0.124955 1.97769 0.124955 2.63547 0.529212 3.03958L7.6132 10.1236L0.521352 17.2154C0.326236 17.4107 0.218506 17.671 0.218506 17.9486C0.218506 18.2264 0.326236 18.4867 0.521352 18.6822L1.14261 19.3031C1.33788 19.4984 1.59819 19.606 1.87592 19.606C2.15364 19.606 2.4141 19.4984 2.60922 19.3031L11.0532 10.8595C11.2487 10.6636 11.3562 10.4021 11.3555 10.124C11.3562 9.84491 11.2487 9.58353 11.0532 9.38779Z" fill="white"/>
</svg>
