<svg width="19" height="19" viewBox="0 0 19 19" fill="none" xmlns="http://www.w3.org/2000/svg">
<path d="M17.3301 7.83008H11.1699V1.66992C11.1699 0.747643 10.4223 0 9.5 0C8.57772 0 7.83008 0.747643 7.83008 1.66992V7.83008H1.66992C0.747643 7.83008 0 8.57772 0 9.5C0 10.4223 0.747643 11.1699 1.66992 11.1699H7.83008V17.3301C7.83008 18.2524 8.57772 19 9.5 19C10.4223 19 11.1699 18.2524 11.1699 17.3301V11.1699H17.3301C18.2524 11.1699 19 10.4223 19 9.5C19 8.57772 18.2524 7.83008 17.3301 7.83008Z" fill="#C913CD"/>
</svg>
