<svg width="13" height="10" viewBox="0 0 13 10" fill="none" xmlns="http://www.w3.org/2000/svg">
<path fill-rule="evenodd" clip-rule="evenodd" d="M5.8133 10H7.17963C7.34959 10 7.51235 9.93246 7.63249 9.81233C8.22375 9.22107 11.1095 6.33505 11.9922 5.45259C12.2422 5.20263 12.2422 4.79737 11.9922 4.54741L7.63249 0.187671C7.51235 0.0675355 7.34959 -6.48773e-06 7.17963 0.000270321C6.90891 0.000270321 6.31986 0.000276809 5.8133 0C5.55448 0 5.32086 0.156114 5.22176 0.395277C5.12294 0.634441 5.17747 0.909871 5.36072 1.09284L9.2067 4.93882C9.24047 4.97259 9.24047 5.02741 9.2067 5.06118L5.36072 8.90716C5.17747 9.09013 5.12294 9.36556 5.22176 9.60472C5.32086 9.84389 5.55448 10 5.8133 10ZM0.640292 10H2.00662C2.17631 10 2.33935 9.93246 2.4592 9.81233L6.81895 5.45259C7.0689 5.20263 7.0689 4.79737 6.81895 4.54741L2.4592 0.187671C2.33935 0.0675355 2.17631 -6.48773e-06 2.00662 0.000270321C1.73563 0.000270321 1.14658 0.000276809 0.640292 0C0.381199 0 0.147849 0.156114 0.0487513 0.395277C-0.0503463 0.634441 0.00446184 0.909871 0.187433 1.09284L4.03342 4.93882C4.06719 4.97259 4.06719 5.02741 4.03342 5.06118L0.187433 8.90716C0.00446184 9.09013 -0.0503463 9.36556 0.0487513 9.60472C0.147849 9.84389 0.381199 10 0.640292 10Z" fill="url(#paint0_linear_6_359)"/>
<defs>
<linearGradient id="paint0_linear_6_359" x1="-0.553585" y1="-1.64341" x2="12.7332" y2="11.6434" gradientUnits="userSpaceOnUse">
<stop stop-color="#FF35F7"/>
<stop offset="1" stop-color="#276DD7"/>
</linearGradient>
</defs>
</svg>
