<svg width="48" height="48" viewBox="0 0 48 48" fill="none" xmlns="http://www.w3.org/2000/svg">
<path d="M23.9995 29.0385C26.783 29.0385 29.0395 26.782 29.0395 23.9985C29.0395 21.215 26.783 18.9585 23.9995 18.9585C21.216 18.9585 18.9595 21.215 18.9595 23.9985C18.9595 26.782 21.216 29.0385 23.9995 29.0385Z" fill="#FF35F7"/>
<path d="M24 0C10.7452 0 0 10.7452 0 24C0 37.2548 10.7452 48 24 48C37.2548 48 48 37.2548 48 24C48 10.7452 37.2548 0 24 0ZM38.828 30.0998C38.7128 32.3816 38.0716 34.6316 36.4088 36.2768C34.7298 37.9376 32.4691 38.5564 30.1654 38.6704H17.8347C15.5307 38.5564 13.2703 37.938 11.5913 36.2768C9.92842 34.6316 9.28733 32.3816 9.17213 30.0998V17.9002C9.28733 15.6184 9.92851 13.3684 11.5913 11.7231C13.2703 10.0623 15.531 9.44352 17.8347 9.32957H30.1653C32.4693 9.44352 34.7297 10.062 36.4087 11.7231C38.0716 13.3684 38.7127 15.6184 38.8279 17.9002L38.828 30.0998Z" fill="#FF35F7"/>
<path d="M30.0096 12.1106C27.0061 12.0282 20.9946 12.0282 17.9912 12.1106C16.4282 12.1535 14.6563 12.5426 13.5427 13.732C12.3855 14.9684 11.9483 16.4622 11.9039 18.1333C11.826 21.0663 11.9039 29.8695 11.9039 29.8695C11.9547 31.5403 12.3855 33.0343 13.5427 34.2707C14.6563 35.4605 16.4282 35.8492 17.9912 35.8921C20.9946 35.9745 27.0061 35.9745 30.0096 35.8921C31.5726 35.8492 33.3444 35.4601 34.458 34.2707C35.6152 33.0343 36.0525 31.5405 36.0969 29.8695V18.1333C36.0525 16.4622 35.6152 14.9684 34.458 13.732C33.3441 12.5422 31.5722 12.1535 30.0096 12.1106ZM24 31.8134C22.4549 31.8134 20.9446 31.3552 19.6599 30.4968C18.3752 29.6384 17.3739 28.4183 16.7827 26.9909C16.1914 25.5634 16.0367 23.9927 16.3381 22.4773C16.6395 20.9619 17.3836 19.57 18.4761 18.4774C19.5686 17.3849 20.9606 16.6409 22.476 16.3395C23.9913 16.038 25.5621 16.1927 26.9895 16.784C28.417 17.3753 29.637 18.3766 30.4954 19.6612C31.3538 20.9459 31.812 22.4563 31.812 24.0014C31.812 26.0732 30.989 28.0602 29.5239 29.5253C28.0589 30.9903 26.0719 31.8134 24 31.8134ZM31.8452 17.8019C31.5362 17.8018 31.2342 17.7101 30.9773 17.5384C30.7204 17.3666 30.5202 17.1226 30.402 16.8371C30.2838 16.5516 30.2529 16.2375 30.3133 15.9344C30.3736 15.6314 30.5224 15.353 30.741 15.1345C30.9595 14.9161 31.2379 14.7673 31.5409 14.7071C31.844 14.6468 32.1581 14.6778 32.4436 14.796C32.7291 14.9143 32.9731 15.1146 33.1447 15.3715C33.3164 15.6284 33.408 15.9305 33.408 16.2395C33.408 16.4447 33.3676 16.6479 33.289 16.8375C33.2105 17.027 33.0954 17.1993 32.9502 17.3444C32.8051 17.4895 32.6328 17.6046 32.4432 17.683C32.2536 17.7615 32.0504 17.8019 31.8452 17.8019Z" fill="#FF35F7"/>
</svg>
