<svg width="181" height="63" viewBox="0 0 181 63" fill="none" xmlns="http://www.w3.org/2000/svg">
<path d="M150.639 20.1064H145.092L141.589 44.9064H147.135L150.639 20.1064Z" fill="#FF35F7"/>
<path d="M148.595 15.8188C150.872 15.8188 152.857 14.0225 152.857 11.5309C152.857 9.61876 151.515 8.34399 149.471 8.34399C146.96 8.34399 145.209 10.3141 145.209 12.6318C145.209 14.4861 146.552 15.8188 148.595 15.8188Z" fill="#FF35F7"/>
<path d="M181 20.1065H175.92L175.045 23.815H174.753C173.468 21.0916 170.257 19.5271 166.578 19.5271C158.755 19.5271 152.682 26.3065 152.682 33.8972C152.682 40.271 157.295 45.0224 163.601 45.0224C167.279 45.0224 170.607 43.5159 172.475 40.7346H172.709L172.417 42.9364C169.965 55.6841 156.302 65.3607 126.817 50.8168C106.148 40.6187 89.9161 57.1327 89.9161 57.1327C105.272 47.9196 117.008 56.9589 140.129 60.957C173.994 66.8673 177.322 46.471 177.438 45.486C177.497 45.1383 177.555 44.7907 177.614 44.385L181 20.1065ZM164.944 40.2131C160.856 40.2131 158.463 37.4897 158.463 33.7234C158.463 28.6822 162.316 24.5103 167.454 24.5103C171.541 24.5103 173.935 27.2336 173.935 30.9421C173.935 36.0411 170.082 40.2131 164.944 40.2131Z" fill="#FF35F7"/>
<path d="M136.509 44.9066L139.37 24.4524H122.671L122.029 29.4935H133.356C131.721 35.9832 125.824 40.0393 119.11 40.0393C112.862 40.0393 108.775 36.5047 108.191 30.6524C106.79 33.3758 105.856 36.5627 105.914 40.387C108.775 43.5739 112.979 45.486 118.234 45.486C123.839 45.486 128.51 43.4001 131.838 39.4599H132.072L132.013 44.9066H136.509Z" fill="#FF35F7"/>
<path d="M92.0181 41.5458C92.7187 43.5738 93.7113 44.5589 95.1126 44.5589C95.9884 44.5589 97.0394 44.0953 98.2655 43.2841C98.9078 42.7626 99.6668 42.0093 100.543 41.0243C101.594 39.6916 102.528 38.243 103.287 36.7365C103.987 35.114 104.513 33.7813 104.805 32.5645C104.805 32.5645 104.805 32.4486 104.863 32.2748C104.922 31.9271 105.038 31.5794 105.038 31.2897C105.797 27.7551 108.775 17.7888 117.533 14.1383C117.708 14.0804 117.825 14.0224 118 13.9645C118.234 13.8486 118.467 13.7907 118.701 13.7327C118.993 13.6168 119.285 13.5589 119.635 13.443C119.752 13.385 119.927 13.385 120.044 13.3271C120.336 13.2692 120.569 13.2112 120.861 13.1533C120.92 13.1533 121.036 13.0953 121.095 13.0953C121.971 12.9215 122.905 12.8636 123.839 12.8636C129.561 12.8636 133.239 15.6449 133.648 20.0486H140.071C139.662 12.4579 133.064 7.35888 124.131 7.35888C122.613 7.35888 121.095 7.53271 119.694 7.82243C118.993 7.93832 118.351 8.11215 117.708 8.34393C117.65 8.34393 117.533 8.40187 117.475 8.40187C116.949 8.5757 116.424 8.80748 115.898 8.98131C104.63 13.6748 102.177 27.6393 102.177 27.6393C102.061 27.871 101.944 28.6243 101.71 29.957C101.36 32.1589 100.951 33.8393 100.543 35.0561C100.017 36.6785 99.3165 38.185 98.4407 39.5757C97.3313 41.2561 96.6307 42.0673 96.2219 42.0673C96.1052 42.0673 95.9884 41.9514 95.93 41.7776C95.6965 40.6766 95.5213 39.6336 95.5213 38.5907C95.5213 37.7215 95.6381 36.7365 95.8132 35.6935C96.2803 33.4336 96.5139 32.1009 96.5139 31.7533C96.5139 31.2897 96.2803 30.8262 95.8132 30.3047C95.2294 29.7832 94.6455 29.5514 94.1784 29.5514H94.0032C93.7113 29.5514 93.4777 29.6673 93.2442 29.8411C92.8355 30.2467 92.5436 30.7103 92.2516 31.2897C91.4926 33.086 91.0839 34.9402 91.0839 36.9103C91.0839 36.9682 91.0839 37.0262 91.0839 37.1421C90.5 37.9533 89.6242 38.9383 88.4565 40.271C87.2303 41.6037 86.4713 42.357 86.2377 42.4729C86.2377 42.0093 86.3545 41.1402 86.5881 39.8654C86.5881 39.5757 86.8216 38.5327 87.3471 36.7944C88.2813 33.6654 88.8068 31.7533 88.8068 31.0579C88.8068 30.4785 88.5732 29.8991 88.1061 29.4355C87.2887 28.6822 86.6465 28.3346 86.1794 28.3346C85.7707 28.3346 85.3619 28.7981 85.0116 29.7252C83.9607 32.6224 83.26 35.0561 82.8513 37.0262C82.3842 37.6636 81.9171 38.243 81.5084 38.7645C80.1071 40.5607 78.9394 41.7196 78.0052 42.2991C78.0052 42.1832 78.0052 42.1252 78.0052 42.1252C78.8226 38.9383 80.1655 33.5495 82.0339 26.0748C84.2526 26.2486 85.7707 26.3645 86.7048 26.3645H86.7632C87.1719 26.7122 87.5807 27.0019 87.931 27.2336C88.7484 27.6972 89.449 27.929 89.9161 27.929C90.2081 27.929 90.4416 27.7551 90.6168 27.4075C90.7919 26.828 90.9671 26.3645 91.0839 25.9009C91.259 25.843 91.3758 25.785 91.551 25.785C92.7771 25.2636 93.4194 24.5682 93.4194 23.757V23.4673C93.2442 22.3084 93.0107 21.729 92.7771 21.729C92.7771 21.729 92.6603 21.729 92.6019 21.7869C92.2516 22.1346 91.7261 22.4822 90.9087 22.6561C90.7919 22.4243 90.5584 22.1925 90.3248 21.9607C89.5658 21.2075 88.9236 20.8598 88.3397 20.8598H88.2229C87.8142 20.8598 87.5223 21.0916 87.2887 21.4972C86.9968 22.1346 86.7632 22.714 86.5881 23.2355H85.6539C84.8365 23.2355 83.8439 23.2355 82.7929 23.1776C82.9681 22.5981 83.0848 22.0187 83.26 21.3813C84.3694 17.2673 84.8948 14.8916 84.8948 14.3701C84.8948 13.6748 84.4277 12.8636 83.4936 12.0523C82.7929 11.5308 82.2674 11.2991 81.8587 11.2991C81.5084 11.2991 81.2165 11.5308 80.9829 11.9944C80.6326 12.8056 80.2239 14.0224 79.7568 15.529C79.2897 17.0355 78.6474 19.4692 77.83 22.8299C76.1952 22.714 74.9107 22.714 74.0348 22.714H73.3926C71.1739 22.714 69.4807 22.9458 68.3713 23.3514C67.3787 23.6991 66.9116 24.2785 66.9116 25.0897V25.3794C66.9116 25.6692 66.97 25.9589 67.0868 26.2486C67.3203 26.828 67.6123 27.1757 67.7874 27.2336C67.7874 27.2336 67.8458 27.2336 67.8458 27.1757C67.8458 27.1178 67.8458 27.0598 67.8458 27.0598C67.729 26.7121 67.6707 26.5383 67.6707 26.5383C67.6707 26.4224 67.729 26.3065 67.8458 26.1327C68.3713 25.6692 69.6558 25.4374 71.6994 25.4374C73.2174 25.4374 75.0274 25.5533 77.1294 25.7271C76.9542 26.3645 76.779 27.0598 76.6039 27.7551C75.4945 31.7533 74.7355 34.8822 74.21 37.0841C73.3926 38.185 72.4584 39.286 71.4074 40.4449C70.0061 41.9514 69.1887 42.7047 69.0135 42.7047H68.8968C68.9552 42.4729 69.1887 41.8355 69.7726 40.7925C71.0571 38.0112 71.7577 36.215 71.7577 35.4037C71.7577 34.8822 71.4658 34.2449 70.8236 33.5495C70.0645 32.8542 69.4223 32.5065 68.8968 32.5065H68.7216C68.4881 32.5065 68.2545 32.6224 68.021 32.7963C67.6123 33.2019 67.2036 34.071 66.7365 35.4037C66.4445 36.0411 66.0358 36.8523 65.3936 37.7794C64.8097 38.5907 64.0507 39.5178 63.0581 40.5607C61.6568 41.8355 60.8394 42.4729 60.489 42.5308H60.4306V42.4729C60.4306 42.2991 60.5474 41.8935 60.781 41.1981C61.2481 39.7495 61.7736 38.5907 62.3574 37.5477C62.7661 36.7944 63.2916 35.9832 63.9339 35.114C64.2258 34.7084 64.6929 34.1869 65.3936 33.5495C66.7365 32.3907 67.9042 31.8112 68.8968 31.8112C69.1887 31.8112 69.4223 31.8692 69.539 32.043C69.6558 32.2748 69.7726 32.3907 69.831 32.3907C69.831 32.3907 69.8894 32.3907 69.9477 32.3907C70.5316 32.1009 70.8236 31.8112 70.8236 31.4056C70.8236 31.1159 70.6484 30.7103 70.2981 30.1888C69.0719 28.5664 67.6706 27.7551 66.0358 27.7551H65.7439C64.0507 27.7551 62.2407 28.7402 60.4306 30.7103C59.6132 31.5794 58.971 32.3907 58.5623 33.1439C57.7448 34.5346 57.161 35.8093 56.8106 37.0262C56.5187 37.3159 56.2268 37.6056 55.9348 37.8953C54.0665 39.6336 52.6652 40.7346 51.7894 41.314C50.4465 42.2991 49.1036 42.8206 47.819 42.8206C47.4687 42.8206 47.1768 42.7626 46.8265 42.7047C46.2426 42.5888 45.9506 42.2411 45.9506 41.7196C45.9506 40.8505 46.3594 39.6916 47.2352 38.1851C47.5271 37.7215 47.8774 37.1421 48.3445 36.5626C49.6874 37.2579 50.9719 37.4897 52.1397 37.1421C53.0739 36.9103 53.9497 36.3308 54.8255 35.4037C55.8765 34.2449 56.2852 33.1439 56.1684 32.1589C56.11 31.4636 55.7013 30.7682 55.059 30.015C54.0665 29.0879 53.1323 28.5664 52.2565 28.5664H52.0813C51.2055 28.5664 50.0961 29.0879 48.7532 30.0729C48.4613 30.2467 47.819 30.8262 46.8848 31.7533C45.1916 33.6654 44.0823 35.4037 43.5568 36.9682C42.5642 38.243 41.3381 39.8654 39.7616 41.7776C39.1194 42.4729 38.7106 42.8785 38.5355 43.0523C38.5355 42.9944 38.5355 42.9365 38.5355 42.9365C39.061 41.2561 39.9368 38.7065 41.2797 35.2878C42.2139 32.9701 42.6226 31.2318 42.6226 30.1308V29.6673C42.6226 28.1028 41.8052 26.6542 40.2287 25.4374C39.82 25.2056 39.5281 25.0318 39.3529 24.9159L39.6448 24.4523C41.5716 21.6131 42.5642 19.7589 42.5642 18.8897C42.5642 18.0785 41.9219 17.2673 40.6374 16.514C40.2871 16.2822 39.7616 16.1664 39.1194 16.1664H39.0026C38.1852 16.1664 37.4261 16.3981 36.7839 16.8617C35.149 18.2523 34.2732 19.643 34.2732 21.0336C34.2732 21.6131 34.4484 22.3084 34.7987 23.0037C35.2074 23.757 35.8497 24.4523 36.7255 25.0897C37.1926 25.2636 37.4261 25.3794 37.4261 25.4953C37.3677 25.6112 37.3094 25.7271 37.1926 25.9009C32.6968 31.8692 29.1352 36.157 26.391 38.6486C20.6106 44.3271 15.8229 47.2243 12.0861 47.2243H11.7942C10.9184 47.2243 10.101 47.0505 9.34194 46.7607C6.36419 45.5439 4.84613 42.5308 4.84613 37.8374C4.84613 34.9981 5.31323 32.043 6.24742 28.972C6.94806 26.5963 7.76548 24.6262 8.64129 23.0037C9.22516 21.729 10.2761 20.1065 11.619 18.1944C12.3781 17.0935 13.3123 15.9346 14.4216 14.7178C15.5894 13.385 16.9906 11.9944 18.5087 10.6037C19.9684 9.38692 21.2529 8.40187 22.3623 7.6486C25.8655 5.38879 28.9016 4.22991 31.4123 4.22991H31.529H31.6458C31.6458 4.22991 31.7042 4.22991 31.7626 4.22991H31.9377C32.4048 4.22991 32.7552 4.28785 33.0471 4.34579C33.5142 4.51963 33.6894 4.86729 33.6894 5.50467V5.73645C33.6894 7.24299 33.1055 9.15514 31.8794 11.357C31.2371 12.4579 30.8284 13.1533 30.77 13.5009C30.9452 13.8486 31.2955 14.0224 31.821 14.0224H31.8794C32.1129 14.0224 32.4048 13.9645 32.6968 13.8486C34.5652 13.2112 36.0248 12.0523 37.0758 10.372C37.6013 9.44486 37.8348 8.69159 37.8348 8.17009V7.99626C37.8348 7.88037 37.8348 7.6486 37.7765 7.41682C37.6597 6.60561 37.4845 6.08411 37.3677 5.79439C37.0174 5.09907 36.4336 4.34579 35.6745 3.47664C33.339 1.15888 30.77 0 28.0258 0C24.8145 0.0579439 21.0194 1.56449 16.6403 4.63551C13.4874 6.89533 10.6848 9.67664 8.17419 12.9215C6.59774 14.9495 5.31323 16.9776 4.20387 19.0056C3.32806 20.628 2.62742 22.2505 1.98516 23.9308C0.642258 27.6972 0 31.2318 0 34.4187C0 39.1701 1.45968 42.9944 4.37903 45.8336C7.06484 48.3832 9.63387 49.6579 12.1445 49.6579C13.2539 49.6579 14.3048 49.5421 15.3558 49.2523C16.4068 48.9047 17.4577 48.4991 18.4503 47.9196C19.3261 47.3981 20.4355 46.6449 21.72 45.6598C23.2381 44.5009 25.7487 42.0673 29.1352 38.3009C30.8284 36.4467 32.4632 34.4187 34.0981 32.1009C35.7329 29.7832 37.1926 27.7551 38.3603 25.843C38.4187 25.843 38.4187 25.843 38.4771 25.843C39.1194 26.2486 39.4697 26.5963 39.4697 26.886C39.4697 27.4075 38.769 29.4935 37.3094 33.028C35.5577 37.0262 34.7403 39.9234 34.7403 41.7776C34.7403 42.1832 34.7987 42.5888 34.9739 42.9365C35.2074 43.4579 35.6161 43.9794 36.2 44.443C36.7839 44.8486 37.251 45.0804 37.6597 45.0804H37.9516C38.2435 45.0804 38.5939 44.9065 39.0026 44.5589C39.5865 43.9794 40.1703 43.2841 40.7542 42.4729C41.5132 41.4299 42.2139 40.4449 42.9729 39.3439C43.0313 40.0972 43.2065 40.9084 43.6152 41.7196C44.7829 43.7477 46.1258 44.7907 47.819 44.7907C48.1694 44.7907 48.5197 44.7327 48.8116 44.7327C49.629 44.6748 50.7384 44.0953 52.0813 43.0523C52.8987 42.415 53.9497 41.372 55.2926 39.8654C55.5845 39.5178 55.9348 39.1121 56.3436 38.7065C56.3436 38.9383 56.2852 39.1122 56.2852 39.3439C56.2852 40.8505 56.8106 42.1832 57.8032 43.2841C58.5039 44.2112 59.3213 44.6168 60.1971 44.6168C60.6642 44.6168 61.1313 44.5009 61.54 44.2112C61.7736 44.0953 62.4742 43.5159 63.5252 42.4729C64.2842 41.6617 64.9265 40.8505 65.5103 40.0972C65.4519 40.5028 65.4519 40.7925 65.4519 41.0243C65.4519 41.9514 65.7439 42.7626 66.3861 43.4C67.0868 44.0374 67.7874 44.385 68.3129 44.385C69.2471 44.385 70.7068 43.2262 72.5168 40.9664C72.8671 40.5028 73.2174 40.0972 73.5094 39.6916C73.451 40.0972 73.3926 40.4449 73.3926 40.7346C73.3926 41.7776 73.7429 42.7047 74.4436 43.6318C75.261 44.385 75.9616 44.7907 76.4871 44.7907C77.0126 44.7907 77.5965 44.5009 78.2387 43.8636C78.9394 43.2262 79.64 42.5308 80.399 41.6617C81.1581 40.7346 81.8003 39.9234 82.4426 39.1122C82.4426 39.4019 82.4426 39.6336 82.4426 39.8654C82.4426 41.0243 82.6761 41.9514 83.1432 42.5888C84.311 43.9215 85.2452 44.5589 86.0042 44.5589C86.5881 44.5589 87.2887 44.0953 88.1061 43.1103C88.8068 42.2411 89.8577 40.8505 91.259 38.9383C91.4926 39.9234 91.7261 40.7925 92.0181 41.5458ZM50.9136 33.5495C52.0813 32.6224 53.0739 32.043 53.8329 31.8692C53.7161 32.5065 53.3658 33.1439 52.7819 33.7813C51.9645 34.6505 51.1471 35.2299 50.2713 35.4037L49.8042 35.5196C49.5123 35.5776 49.2787 35.5196 49.0452 35.4037C49.4539 34.9402 50.0377 34.3028 50.9136 33.5495ZM37.7765 24.5103C37.251 24.3364 36.959 24.1047 36.959 23.9308C36.959 23.757 37.0174 23.5832 37.1342 23.3514C37.1342 23.1196 37.5429 22.5981 38.3019 21.7869C39.061 20.9178 39.7616 20.2804 40.3455 19.7589C40.3455 19.9907 40.1119 20.5701 39.6448 21.4972C39.0026 22.6561 38.4187 23.6411 37.7765 24.5103Z" fill="#673DE6"/>
</svg>
