<svg width="21" height="19" viewBox="0 0 21 19" fill="none" xmlns="http://www.w3.org/2000/svg">
<path d="M15.0816 5.78684C14.8585 5.78684 14.6775 5.60621 14.6775 5.38273C14.6775 2.90312 12.5826 0.808218 10.1029 0.808218C7.62333 0.808218 5.52843 2.90352 5.52843 5.38273C5.52843 5.60621 5.34739 5.78684 5.12432 5.78684C4.90126 5.78684 4.72021 5.60621 4.72021 5.38273C4.72021 2.46507 7.18528 0 10.1029 0C13.0206 0 15.4857 2.46547 15.4857 5.38273C15.4857 5.6058 15.3046 5.78684 15.0816 5.78684Z" fill="#FF35F7"/>
<path d="M19.802 18.9996C19.6549 18.9996 19.5131 18.9192 19.4415 18.7793L15.8648 11.7664C15.7633 11.5676 15.8421 11.3243 16.0409 11.2229C16.2398 11.1211 16.483 11.2003 16.5845 11.3991L20.1612 18.412C20.2627 18.6108 20.1839 18.8541 19.9851 18.9555C19.9265 18.9854 19.8638 18.9996 19.802 18.9996Z" fill="#FF35F7"/>
<path d="M0.403916 18.9996C0.342087 18.9996 0.27945 18.9854 0.22045 18.9555C0.0216287 18.8541 -0.0571725 18.6108 0.0442589 18.412L3.62103 11.3991C3.72206 11.2007 3.96533 11.1211 4.16456 11.2229C4.36338 11.3243 4.44218 11.5676 4.34075 11.7664L0.764381 18.7793C0.692854 18.9191 0.551012 18.9996 0.403916 18.9996Z" fill="#FF35F7"/>
<path d="M19.8016 19C19.7555 19 19.7086 18.9915 19.6625 18.9749L14.9522 17.2478L10.2419 18.9749C10.1518 19.0077 10.0536 19.0077 9.96392 18.9749L5.25362 17.2478L0.543326 18.9749C0.333189 19.0513 0.101634 18.9442 0.0248537 18.7345C-0.051927 18.5248 0.0555662 18.2928 0.265299 18.216L5.11461 16.4379C5.20473 16.4052 5.30292 16.4052 5.39264 16.4379L10.1029 18.1651L14.8132 16.4379C14.9033 16.4052 15.0015 16.4052 15.0913 16.4379L19.9406 18.216C20.1503 18.2928 20.2578 18.5252 20.181 18.7345C20.1212 18.8982 19.9664 19 19.8016 19Z" fill="#FF35F7"/>
<path d="M10.2828 13.4911C10.2209 13.4911 10.1575 13.477 10.0985 13.4467C9.90008 13.3448 9.82128 13.1016 9.92352 12.9028C10.4759 11.8262 11.2728 10.936 12.0435 10.0748C12.3348 9.74949 12.6258 9.42418 12.9034 9.08918C13.7989 8.00899 14.6734 6.83303 14.6775 5.38188C14.6779 5.15881 14.8589 4.97858 15.0816 4.97858H15.0824C15.3058 4.97938 15.4861 5.16043 15.4857 5.3839C15.4812 7.10298 14.4718 8.46402 13.5257 9.60482C13.2413 9.94791 12.9434 10.2809 12.6456 10.6139C11.8754 11.4746 11.1476 12.2877 10.6424 13.2717C10.5709 13.4111 10.4295 13.4911 10.2828 13.4911Z" fill="#FF35F7"/>
<path d="M9.9231 13.4911C9.77641 13.4911 9.63497 13.4111 9.56304 13.2717C9.0579 12.2873 8.3305 11.4746 7.55987 10.6139C7.26204 10.2809 6.96381 9.94791 6.67972 9.60482C5.7341 8.46402 4.72464 7.10298 4.71979 5.3839C4.71938 5.16043 4.89962 4.97938 5.12309 4.97858H5.1239C5.34656 4.97858 5.5276 5.15881 5.52801 5.38188C5.53205 6.83303 6.40654 8.00899 7.30205 9.08918C7.57967 9.42418 7.87103 9.74989 8.16199 10.0748C8.93263 10.936 9.72913 11.8262 10.2819 12.9028C10.3838 13.1012 10.3054 13.3448 10.107 13.4467C10.0484 13.477 9.98493 13.4911 9.9231 13.4911Z" fill="#FF35F7"/>
<path d="M10.1029 13.5999C9.87341 13.5995 9.66611 13.4734 9.56306 13.271C9.46163 13.0722 9.54043 12.8285 9.73925 12.7271C9.85765 12.6668 9.99222 12.6705 10.1029 12.7254C10.2137 12.6701 10.3482 12.6664 10.4675 12.7275C10.6659 12.8293 10.7443 13.0726 10.6424 13.2718C10.539 13.4743 10.3321 13.5999 10.1029 13.5999Z" fill="#FF35F7"/>
<path d="M10.103 18.9996C9.87989 18.9996 9.69885 18.819 9.69885 18.5955V14.8138C9.69885 14.5908 9.87989 14.4097 10.103 14.4097C10.326 14.4097 10.5071 14.5908 10.5071 14.8138V18.5951C10.5071 18.819 10.326 18.9996 10.103 18.9996Z" fill="#FF35F7"/>
<path d="M3.98109 11.9871C3.81622 11.9871 3.66144 11.8857 3.60164 11.722C3.52486 11.5123 3.63235 11.2803 3.84208 11.2035L5.97457 10.4216C6.18389 10.3448 6.41626 10.4527 6.49304 10.662C6.56982 10.8718 6.46232 11.1041 6.25259 11.1805L4.12011 11.9625C4.07444 11.9794 4.02716 11.9871 3.98109 11.9871Z" fill="#FF35F7"/>
<path d="M5.25363 17.2215C5.21726 17.2215 5.18049 17.2166 5.14412 17.2061C4.92954 17.1459 4.80427 16.9228 4.86488 16.7079L6.35766 11.4011C6.41828 11.1861 6.64215 11.0604 6.85593 11.1218C7.07051 11.1821 7.19578 11.4051 7.13517 11.6201L5.64239 16.9269C5.59228 17.1051 5.43023 17.2215 5.25363 17.2215Z" fill="#FF35F7"/>
<path d="M14.9522 17.2215C14.7756 17.2215 14.6136 17.1051 14.5635 16.9269L13.0707 11.6202C13.0101 11.4052 13.1353 11.1821 13.3499 11.1219C13.5661 11.0601 13.788 11.1866 13.8482 11.4011L15.341 16.7079C15.4016 16.9229 15.2763 17.146 15.0617 17.2062C15.025 17.2171 14.9882 17.2215 14.9522 17.2215Z" fill="#FF35F7"/>
<path d="M16.2248 11.9871C16.1787 11.9871 16.1318 11.979 16.0858 11.962L13.9533 11.1801C13.7436 11.1037 13.6361 10.8709 13.7128 10.6616C13.7896 10.4523 14.0212 10.3444 14.2313 10.4212L16.3638 11.2031C16.5735 11.2799 16.681 11.5123 16.6042 11.7216C16.544 11.8857 16.3897 11.9871 16.2248 11.9871Z" fill="#FF35F7"/>
<path d="M12.8307 4.95641C13.0044 5.09785 13.0327 5.35243 12.8953 5.5262C12.7539 5.69997 12.4993 5.72826 12.3255 5.59086L12.1235 5.42922V7.39319H10.507V6.58497H11.3152V4.78264L10.1029 3.81278L8.89059 4.78264V6.58497H9.69881V7.39319H8.08237V5.42922L7.88032 5.59086C7.70655 5.72826 7.45196 5.69997 7.31052 5.5262C7.17313 5.35243 7.20141 5.09744 7.37518 4.95641L10.1029 2.77826L12.8307 4.95641Z" fill="#FF35F7"/>
</svg>
