<svg width="14" height="14" viewBox="0 0 14 14" fill="none" xmlns="http://www.w3.org/2000/svg">
<path d="M5.3958 4.6667H1.0208C0.457901 4.6667 0 4.2088 0 3.6458V1.0208C0 0.457901 0.457901 0 1.0208 0H5.3958C5.9588 0 6.4167 0.457901 6.4167 1.0208V3.6458C6.4167 4.2088 5.9588 4.6667 5.3958 4.6667ZM1.0208 0.875C0.940369 0.875 0.875 0.940369 0.875 1.0208V3.6458C0.875 3.72633 0.940369 3.7917 1.0208 3.7917H5.3958C5.47633 3.7917 5.5417 3.72633 5.5417 3.6458V1.0208C5.5417 0.940369 5.47633 0.875 5.3958 0.875H1.0208Z" fill="#FF35F7"/>
<path d="M5.3958 13.9493H1.0208C0.457901 13.9493 0 13.4914 0 12.9285V6.8035C0 6.24049 0.457901 5.78259 1.0208 5.78259H5.3958C5.9588 5.78259 6.4167 6.24049 6.4167 6.8035V12.9285C6.4167 13.4914 5.9588 13.9493 5.3958 13.9493ZM1.0208 6.65759C0.940369 6.65759 0.875 6.72296 0.875 6.8035V12.9285C0.875 13.0089 0.940369 13.0743 1.0208 13.0743H5.3958C5.47633 13.0743 5.5417 13.0089 5.5417 12.9285V6.8035C5.5417 6.72296 5.47633 6.65759 5.3958 6.65759H1.0208Z" fill="#FF35F7"/>
<path d="M12.9792 14H8.60422C8.04121 14 7.58331 13.5421 7.58331 12.9792V10.3542C7.58331 9.79115 8.04121 9.33325 8.60422 9.33325H12.9792C13.5421 9.33325 14 9.79115 14 10.3542V12.9792C14 13.5421 13.5421 14 12.9792 14ZM8.60422 10.2083C8.52368 10.2083 8.45831 10.2736 8.45831 10.3542V12.9792C8.45831 13.0596 8.52368 13.125 8.60422 13.125H12.9792C13.0596 13.125 13.125 13.0596 13.125 12.9792V10.3542C13.125 10.2736 13.0596 10.2083 12.9792 10.2083H8.60422Z" fill="#FF35F7"/>
<path d="M12.9792 8.1667H8.60422C8.04121 8.1667 7.58331 7.7088 7.58331 7.1458V1.0208C7.58331 0.457901 8.04121 0 8.60422 0H12.9792C13.5421 0 14 0.457901 14 1.0208V7.1458C14 7.7088 13.5421 8.1667 12.9792 8.1667ZM8.60422 0.875C8.52368 0.875 8.45831 0.940369 8.45831 1.0208V7.1458C8.45831 7.22633 8.52368 7.2917 8.60422 7.2917H12.9792C13.0596 7.2917 13.125 7.22633 13.125 7.1458V1.0208C13.125 0.940369 13.0596 0.875 12.9792 0.875H8.60422Z" fill="#FF35F7"/>
</svg>
