<svg width="16" height="18" viewBox="0 0 16 18" fill="none" xmlns="http://www.w3.org/2000/svg">
<path fill-rule="evenodd" clip-rule="evenodd" d="M0.88889 12.0555C1.37981 12.0555 1.77778 12.4535 1.77778 12.9444V14.7222C1.77778 14.9579 1.87141 15.184 2.03814 15.3507C2.20483 15.5174 2.43091 15.6111 2.66667 15.6111H13.3333C13.5691 15.6111 13.7951 15.5175 13.9619 15.3507C14.1286 15.184 14.2222 14.9579 14.2222 14.7222V12.9444C14.2222 12.4535 14.6202 12.0555 15.1111 12.0555C15.602 12.0555 16 12.4535 16 12.9444V14.7222C16 15.4294 15.7191 16.1077 15.2189 16.6078C14.7188 17.1079 14.0405 17.3889 13.3333 17.3889H2.66667C1.95944 17.3889 1.28114 17.108 0.781032 16.6078C0.28096 16.1077 0 15.4294 0 14.7222V12.9444C0 12.4535 0.397965 12.0555 0.88889 12.0555Z" fill="#FF35F7"/>
<path fill-rule="evenodd" clip-rule="evenodd" d="M2.92703 6.98258C3.27417 6.63544 3.83698 6.63544 4.18412 6.98258L8.00001 10.7985L11.8159 6.98258C12.163 6.63544 12.7259 6.63544 13.073 6.98258C13.4202 7.32969 13.4202 7.89254 13.073 8.23965L8.62854 12.6841C8.28143 13.0312 7.71858 13.0312 7.37147 12.6841L2.92703 8.23965C2.5799 7.89254 2.5799 7.32969 2.92703 6.98258Z" fill="#FF35F7"/>
<path fill-rule="evenodd" clip-rule="evenodd" d="M7.99997 0.5C8.49091 0.5 8.88886 0.897974 8.88886 1.38889V12.0556C8.88886 12.5465 8.49091 12.9445 7.99997 12.9445C7.50904 12.9445 7.11108 12.5465 7.11108 12.0556V1.38889C7.11108 0.897974 7.50904 0.5 7.99997 0.5Z" fill="#FF35F7"/>
</svg>
