<svg width="14" height="16" viewBox="0 0 14 16" fill="none" xmlns="http://www.w3.org/2000/svg">
<path d="M10.3705 15.25C10.3705 15.4489 10.2911 15.6397 10.1498 15.7803C10.0084 15.921 9.81675 16 9.61687 16H2.51214C1.84611 15.9993 1.20757 15.7356 0.736614 15.2669C0.265659 14.7983 0.000748023 14.1628 0 13.5V2.5C0.000748023 1.83719 0.265659 1.20173 0.736614 0.733055C1.20757 0.264376 1.84611 0.000744409 2.51214 0L9.61687 0C9.81675 0 10.0084 0.0790176 10.1498 0.21967C10.2911 0.360322 10.3705 0.551088 10.3705 0.75C10.3705 0.948912 10.2911 1.13968 10.1498 1.28033C10.0084 1.42098 9.81675 1.5 9.61687 1.5H2.51214C2.24572 1.50029 1.9903 1.60574 1.80192 1.79321C1.61354 1.98069 1.50757 2.23487 1.50728 2.5V13.5C1.50757 13.7651 1.61352 14.0193 1.80191 14.2068C1.9903 14.3943 2.24572 14.4997 2.51214 14.5H9.61687C9.81675 14.5 10.0084 14.579 10.1498 14.7197C10.2911 14.8603 10.3705 15.0511 10.3705 15.25ZM13.7793 7.46969L10.1979 3.90556C10.1282 3.83464 10.045 3.77819 9.95326 3.73946C9.86149 3.70074 9.76291 3.68052 9.66324 3.67997C9.56356 3.67942 9.46476 3.69855 9.37256 3.73626C9.28037 3.77397 9.19661 3.82951 9.12613 3.89966C9.05565 3.9698 8.99985 4.05317 8.96197 4.14492C8.92408 4.23668 8.90487 4.335 8.90543 4.4342C8.906 4.53339 8.92633 4.63149 8.96525 4.72282C9.00417 4.81414 9.06091 4.89687 9.13219 4.96622L11.4269 7.25H5.49401C5.29414 7.25 5.10244 7.32902 4.96111 7.46967C4.81977 7.61032 4.74037 7.80109 4.74037 8C4.74037 8.19891 4.81977 8.38968 4.96111 8.53033C5.10244 8.67098 5.29414 8.75 5.49401 8.75H11.4269L9.13206 11.0337C9.06177 11.1033 9.00596 11.186 8.96783 11.2771C8.9297 11.3682 8.91001 11.4658 8.90987 11.5645C8.90974 11.6632 8.92917 11.7609 8.96704 11.8521C9.00492 11.9432 9.06051 12.0261 9.13061 12.0958C9.20071 12.1656 9.28396 12.2209 9.37558 12.2586C9.4672 12.2963 9.5654 12.3157 9.66454 12.3155C9.76368 12.3154 9.86182 12.2958 9.95334 12.2578C10.0449 12.2199 10.128 12.1644 10.1979 12.0944L13.7793 8.53034C13.9206 8.38969 14 8.19893 14 8.00002C14 7.8011 13.9206 7.61034 13.7793 7.46969Z" fill="#FF35F7"/>
</svg>
