<svg width="14" height="17" viewBox="0 0 14 17" fill="none" xmlns="http://www.w3.org/2000/svg">
<path d="M13.2702 13.81L12.5224 4.38622C12.4758 3.7791 11.9623 3.30349 11.3534 3.30349H9.87621V3.23709C9.87621 1.45214 8.42407 0 6.63912 0C4.85418 0 3.40203 1.45214 3.40203 3.23709V3.30349H1.92487C1.31594 3.30349 0.802459 3.77906 0.756013 4.38495L0.00791283 13.8112C-0.0499805 14.566 0.211848 15.3174 0.726216 15.8727C1.24058 16.428 1.96975 16.7466 2.72671 16.7466H10.5515C11.3084 16.7466 12.0376 16.428 12.552 15.8727C13.0664 15.3173 13.3282 14.566 13.2702 13.81ZM4.38295 3.23709C4.38295 1.99304 5.3951 0.980917 6.63912 0.980917C7.88314 0.980917 8.8953 1.99307 8.8953 3.23709V3.30349H4.38295V3.23709ZM11.8324 15.2062C11.4981 15.5669 11.0433 15.7656 10.5515 15.7656H2.72674C2.23494 15.7656 1.7801 15.5669 1.44589 15.2062C1.11171 14.8454 0.948369 14.3766 0.985918 13.8875L1.73395 4.46122C1.74154 4.36205 1.82541 4.2844 1.92487 4.2844H3.40203V5.49248C3.40203 5.76333 3.62164 5.98294 3.89249 5.98294C4.16335 5.98294 4.38295 5.76333 4.38295 5.49248V4.2844H8.8953V5.49248C8.8953 5.76333 9.1149 5.98294 9.38576 5.98294C9.65661 5.98294 9.87621 5.76333 9.87621 5.49248V4.2844H11.3534C11.4528 4.2844 11.5367 4.36209 11.5444 4.46253L12.2923 13.8862C12.3299 14.3766 12.1665 14.8453 11.8324 15.2062Z" fill="#FF35F7"/>
<path d="M8.84868 8.31724C8.65721 8.1257 8.34664 8.1257 8.15514 8.31724L5.96513 10.5072L5.12303 9.66514C4.93152 9.4736 4.62096 9.4736 4.42942 9.66514C4.23788 9.85668 4.23788 10.1672 4.42942 10.3587L5.61833 11.5477C5.7141 11.6434 5.83963 11.6913 5.9651 11.6913C6.09057 11.6913 6.21613 11.6435 6.31187 11.5477L8.84865 9.01088C9.04022 8.81931 9.04022 8.50878 8.84868 8.31724Z" fill="#FF35F7"/>
</svg>
