<svg width="20" height="21" viewBox="0 0 20 21" fill="none" xmlns="http://www.w3.org/2000/svg">
<path d="M8.02664 4.3813L7.58147 6.47224C7.55458 6.59842 7.60658 6.72818 7.71435 6.80391C7.82213 6.87964 7.96574 6.88739 8.08157 6.82364L10 5.76804L11.9184 6.82364C11.9706 6.85236 12.0285 6.86655 12.0862 6.86655C12.1565 6.86655 12.2265 6.84546 12.2856 6.80387C12.3935 6.72814 12.4454 6.59838 12.4185 6.4722L11.9734 4.38125L13.6042 2.94274C13.7026 2.8559 13.7394 2.72138 13.6983 2.59885C13.6571 2.47631 13.5456 2.3884 13.4132 2.37408L11.2196 2.13742L10.3091 0.192808C10.2542 0.0754002 10.1332 0 10 0C9.8668 0 9.74588 0.0754002 9.69091 0.192808L8.78038 2.1375L6.58683 2.37416C6.45441 2.38844 6.34291 2.47635 6.30173 2.59893C6.26054 2.72151 6.29736 2.85602 6.3958 2.94282L8.02664 4.3813ZM9.04745 2.76909C9.16642 2.75625 9.26957 2.68376 9.31894 2.57834L10 1.1237L10.6811 2.57829C10.7305 2.68372 10.8336 2.75621 10.9526 2.76905L12.5934 2.94607L11.3735 4.02206C11.2851 4.10004 11.2457 4.21737 11.2698 4.33071L11.6028 5.89476L10.1679 5.10515C10.1158 5.07655 10.058 5.06224 10.0001 5.06224C9.94217 5.06224 9.88432 5.07655 9.83228 5.10515L8.3973 5.89476L8.73029 4.33075C8.75442 4.21737 8.71502 4.10008 8.62658 4.0221L7.40673 2.94611L9.04745 2.76909ZM1.01763 7.2666C0.990737 7.39283 1.04274 7.52255 1.15051 7.59828C1.25828 7.674 1.40189 7.68176 1.51773 7.61801L2.98515 6.81055L4.45258 7.61801C4.50479 7.64672 4.56264 7.66092 4.62032 7.66092C4.6906 7.66092 4.76063 7.63983 4.81979 7.59823C4.92761 7.52251 4.97957 7.39275 4.95268 7.26656L4.61218 5.6672L5.85956 4.56688C5.95801 4.48004 5.99478 4.34552 5.95364 4.22299C5.9125 4.10045 5.80095 4.01254 5.66853 3.99822L3.99069 3.81719L3.29426 2.32978C3.23929 2.21241 3.11841 2.13697 2.98515 2.13697C2.85189 2.13697 2.73101 2.21237 2.67604 2.32978L1.97957 3.81727L0.301728 3.99826C0.169312 4.01254 0.057807 4.10045 0.0166233 4.22303C-0.0245603 4.34561 0.0122548 4.48012 0.110697 4.56692L1.35808 5.66724L1.01763 7.2666ZM1.12158 4.57029L2.24665 4.4489C2.36562 4.43606 2.46877 4.36357 2.51814 4.25814L2.98515 3.26071L3.45217 4.2581C3.50154 4.36353 3.60469 4.43602 3.72366 4.44886L4.84872 4.57025L4.01228 5.30805C3.92385 5.38607 3.88445 5.50336 3.90858 5.6167L4.13689 6.68917L3.15294 6.14774C3.1009 6.11911 3.04305 6.10483 2.98515 6.10483C2.92726 6.10483 2.8694 6.11915 2.81736 6.14774L1.83341 6.68921L2.06172 5.61674C2.08586 5.50336 2.04645 5.38607 1.95802 5.30809L1.12158 4.57029ZM19.9834 4.22303C19.9422 4.10049 19.8307 4.01258 19.6983 3.99826L18.0204 3.81723L17.324 2.32978C17.269 2.21241 17.1482 2.13697 17.0149 2.13697C16.8816 2.13697 16.7607 2.21237 16.7058 2.32978L16.0093 3.81727L14.3315 3.9983C14.1991 4.01258 14.0875 4.10049 14.0464 4.22307C14.0052 4.34565 14.042 4.48016 14.1404 4.56697L15.3878 5.66728L15.0473 7.26665C15.0204 7.39287 15.0724 7.52259 15.1802 7.59832C15.288 7.67405 15.4316 7.6818 15.5474 7.61805L17.0148 6.81059L18.4823 7.61805C18.5345 7.64677 18.5923 7.66096 18.65 7.66096C18.7203 7.66096 18.7903 7.63987 18.8495 7.59828C18.9573 7.52255 19.0093 7.39279 18.9824 7.2666L18.6419 5.66724L19.8893 4.56692C19.9877 4.48008 20.0246 4.34556 19.9834 4.22303ZM18.042 5.30809C17.9536 5.38611 17.9142 5.5034 17.9383 5.61674L18.1666 6.68921L17.1827 6.14779C17.1306 6.11915 17.0728 6.10488 17.0149 6.10488C16.957 6.10488 16.8991 6.11919 16.8471 6.14779L15.8631 6.68921L16.0915 5.61674C16.1156 5.50336 16.0762 5.38607 15.9878 5.30809L15.1513 4.57029L16.2764 4.44894C16.3954 4.4361 16.4985 4.36361 16.5479 4.25819L17.0149 3.26075L17.4819 4.25819C17.5313 4.36361 17.6344 4.4361 17.7534 4.44894L18.8785 4.57033L18.042 5.30809ZM17.2415 8.72354C17.17 8.54529 16.9385 8.46292 16.765 8.5528L15.0553 9.43791C14.6637 9.63503 14.2592 9.49292 13.6317 9.24481C12.7721 8.90498 11.6083 8.44602 10.0928 9.35504C8.99079 8.7244 8.04942 8.93891 7.28483 9.11358C6.69638 9.24806 6.23162 9.35422 5.7822 9.1096C5.77427 9.1053 5.76621 9.10128 5.75794 9.09762L3.52444 8.10101C3.35521 8.02549 3.15455 8.09621 3.07524 8.2594C3.07524 8.2594 0.746901 13.0509 0.742447 13.0601C0.660801 13.2281 0.744992 13.4347 0.922366 13.504C0.952437 13.5165 3.00581 14.4105 3.20159 14.4841C3.36569 14.5456 3.41671 14.7279 3.48699 15.1004C3.52457 15.2997 3.56325 15.5041 3.65007 15.6899L3.3156 16.2947C2.97451 16.9116 3.21584 17.6818 3.85361 18.0118C4.05003 18.1134 4.2615 18.1615 4.47005 18.1615C4.49851 18.1615 4.52693 18.1605 4.55522 18.1588C4.44719 18.6915 4.7035 19.2533 5.22357 19.5223C5.60546 19.7199 6.13737 19.7066 6.50981 19.4951C6.62246 19.7535 6.82354 19.9778 7.09859 20.1201C7.46165 20.3079 7.90487 20.3164 8.27701 20.1478C8.38088 20.4404 8.59439 20.6973 8.89799 20.8544C9.4665 21.1485 10.2086 20.9857 10.5862 20.4696L11.0478 20.7152C11.2478 20.8215 11.4641 20.872 11.6777 20.872C12.1409 20.872 12.5907 20.6345 12.8293 20.215C12.9814 19.9474 13.0226 19.6489 12.9678 19.3695C13.4042 19.3455 13.819 19.1118 14.0448 18.7148C14.1728 18.4898 14.2214 18.2419 14.2001 18.0017C14.2612 18.0101 14.3226 18.0147 14.3838 18.0147C14.847 18.0147 15.2967 17.7772 15.5353 17.3577C15.6802 17.1029 15.7232 16.819 15.6783 16.5499C15.7902 16.5479 15.903 16.5323 16.0141 16.5018C16.3559 16.4079 16.6379 16.1911 16.8083 15.8915C16.9539 15.6354 16.9964 15.349 16.9492 15.0778L19.0838 14.1975C19.2522 14.1281 19.3333 13.9421 19.2671 13.777C19.2669 13.7771 17.248 8.7397 17.2415 8.72354ZM4.17358 17.433C3.86578 17.2738 3.74932 16.9021 3.91392 16.6043C3.91392 16.6043 4.531 15.4884 4.53138 15.4877C4.6934 15.1948 5.08641 15.0805 5.38869 15.2369C5.69139 15.3934 5.8096 15.7727 5.64788 16.0653L5.02927 17.1837C4.86407 17.48 4.48078 17.592 4.17358 17.433ZM6.02544 18.9886C5.86287 19.0363 5.69178 19.0203 5.54358 18.9437C5.23579 18.7844 5.11932 18.4127 5.28393 18.115C5.28393 18.115 6.12181 16.5999 6.12219 16.5993C6.27891 16.3159 6.68519 16.1997 6.97788 16.3511C7.28033 16.5075 7.39871 16.887 7.23703 17.1795L6.40038 18.6925C6.32111 18.8358 6.18797 18.941 6.02544 18.9886ZM7.90042 19.5863C7.73781 19.6339 7.56671 19.618 7.4186 19.5414C7.11081 19.3822 6.99434 19.0104 7.15895 18.7126L7.83544 17.4891V17.489C7.91467 17.3457 8.04781 17.2406 8.21034 17.193C8.37291 17.1453 8.54409 17.1613 8.69275 17.2382C8.84018 17.3142 8.94855 17.4425 8.99792 17.5996C9.0475 17.7574 9.03117 17.9232 8.9519 18.0666L8.27536 19.2902C8.19613 19.4335 8.06295 19.5387 7.90042 19.5863ZM9.69978 20.3206C9.5372 20.3683 9.36611 20.3523 9.21791 20.2756C8.91012 20.1164 8.79365 19.7447 8.95826 19.4469C8.95826 19.4469 9.54989 18.3769 9.55027 18.3762C9.7125 18.0828 10.1043 17.9684 10.4075 18.1254C10.7048 18.2793 10.8295 18.6592 10.6667 18.9538L10.0747 20.0245C9.99553 20.1678 9.86235 20.273 9.69978 20.3206ZM12.2345 19.8987C12.0663 20.1945 11.6807 20.3028 11.3747 20.1401L10.9155 19.8958L11.2652 19.2633C11.3519 19.1065 11.4021 18.937 11.4157 18.7643L11.9811 19.065L11.9841 19.0666C12.29 19.2304 12.4023 19.6037 12.2345 19.8987ZM16.2135 15.5752C16.0514 15.8604 15.6516 15.9793 15.3572 15.8184L12.9463 14.5013C12.7832 14.4122 12.5762 14.4679 12.484 14.6257C12.3919 14.7835 12.4494 14.9837 12.6126 15.0728C12.6126 15.0728 14.6797 16.2037 14.688 16.2083C14.9938 16.3748 15.1071 16.7485 14.9405 17.0414C14.7723 17.3373 14.3866 17.4456 14.0808 17.2828L11.4546 15.8633C11.2913 15.7744 11.0844 15.8304 10.9925 15.9884C10.9006 16.1464 10.9585 16.3465 11.1218 16.4354L13.1976 17.5653C13.5034 17.7319 13.6166 18.1056 13.4501 18.3985C13.2819 18.6943 12.8962 18.8026 12.5903 18.6399L11.1147 17.8508C11.0083 17.7273 10.8776 17.6237 10.7272 17.5463C10.4192 17.3869 10.0645 17.3535 9.72853 17.4519C9.70724 17.4581 9.68625 17.4649 9.66546 17.4721C9.65999 17.4508 9.65397 17.4297 9.64735 17.4086C9.54518 17.0836 9.31954 16.8173 9.01242 16.6591C8.70446 16.4998 8.34971 16.4662 8.01371 16.5648C7.99242 16.571 7.97138 16.5777 7.9506 16.5849C7.94512 16.5637 7.9391 16.5425 7.93249 16.5214C7.83031 16.1964 7.60467 15.9302 7.29751 15.7719C7.00995 15.6232 6.69023 15.5893 6.39444 15.6531C6.38583 15.5706 6.36882 15.4883 6.34329 15.4071C6.24112 15.0821 6.01543 14.8159 5.70832 14.6577C5.40031 14.4983 5.04565 14.4648 4.7096 14.5633C4.4885 14.6281 4.29374 14.7451 4.13927 14.9022C4.06666 14.5286 3.94658 14.0595 3.4472 13.872C3.25185 13.7986 2.18765 13.3348 1.61596 13.0856C1.57469 13.0677 1.53736 13.0514 1.5036 13.0367L3.54611 8.83335L5.46189 9.68819C6.13792 10.0499 6.80021 9.8986 7.44087 9.75223C8.10346 9.60085 8.73495 9.45658 9.48067 9.78414C9.30715 9.92342 9.13432 10.0765 8.96381 10.2432C8.30713 10.885 7.46776 11.4911 6.46909 12.0444C6.38549 12.0907 6.3262 12.1692 6.30601 12.2603C6.28582 12.3514 6.30656 12.4465 6.36314 12.5219C7.6744 14.2695 9.22555 13.6621 10.472 13.1741C11.3019 12.8491 12.0186 12.5685 12.5965 12.887L15.9596 14.741C16.2652 14.9098 16.3792 15.2839 16.2135 15.5752ZM16.6705 14.4792C16.5692 14.3578 16.4435 14.2525 16.2956 14.171L12.9325 12.317C12.6382 12.1547 12.335 12.0906 12.027 12.0906C11.4311 12.0906 10.8173 12.3309 10.2172 12.5658C9.07723 13.0122 8.08051 13.4025 7.14898 12.4187C8.05209 11.8888 8.82364 11.3134 9.4461 10.705C9.72018 10.4371 9.99858 10.2081 10.2735 10.0243C11.5874 9.14575 12.4961 9.50498 13.3749 9.85245C14.0155 10.1057 14.678 10.3677 15.372 10.0184L16.7473 9.30647L18.5155 13.7183L16.6705 14.4792Z" fill="#FF35F7"/>
</svg>
