<svg width="15" height="15" viewBox="0 0 15 15" fill="none" xmlns="http://www.w3.org/2000/svg">
<path d="M14.3322 4.39011C14.7599 3.90993 15 3.2872 15 2.63672C15 1.18283 13.8172 0 12.3633 0C11.711 0 11.0866 0.241494 10.6059 0.671338C9.65903 0.240439 8.60722 0 7.5 0C6.39278 0 5.34097 0.240439 4.39406 0.671338C3.91333 0.241494 3.28898 0 2.63672 0C1.18283 0 0 1.18283 0 2.63672C0 3.2872 0.240146 3.90993 0.667764 4.39011C0.239004 5.32986 0 6.37298 0 7.4707C0 8.56459 0.235195 9.62502 0.68083 10.5954C0.245098 11.0775 0 11.7062 0 12.3633C0 13.8172 1.18283 15 2.63672 15C3.29186 15 3.91884 14.7563 4.40042 14.3229C5.36309 14.7662 6.41476 15 7.5 15C8.58524 15 9.63691 14.7662 10.5996 14.3229C11.0812 14.7563 11.7081 15 12.3633 15C13.8172 15 15 13.8172 15 12.3633C15 11.7062 14.7549 11.0775 14.3192 10.5954C14.7648 9.62502 15 8.56459 15 7.4707C15 6.37298 14.761 5.32986 14.3322 4.39011ZM7.5 0.878906C9.16948 0.878906 10.6964 1.49754 11.8623 2.51628L9.98909 4.38943C9.28225 3.82336 8.41304 3.51562 7.5 3.51562C6.58696 3.51562 5.71775 3.82336 5.01091 4.38943L3.13775 2.51622C4.30365 1.49751 5.83052 0.878906 7.5 0.878906ZM10.6055 7.4707C10.6055 9.16992 9.18334 10.6055 7.5 10.6055C5.81666 10.6055 4.39453 9.16992 4.39453 7.4707C4.39453 5.7745 5.78763 4.39453 7.5 4.39453C9.21237 4.39453 10.6055 5.7745 10.6055 7.4707ZM2.63672 0.878906C2.9584 0.878906 3.26985 0.967207 3.54003 1.1291C2.56274 1.73681 1.73549 2.56213 1.12696 3.53666C0.966387 3.26728 0.878906 2.95705 0.878906 2.63672C0.878906 1.66746 1.66746 0.878906 2.63672 0.878906ZM2.5154 3.13685L4.38791 5.00938C3.82269 5.7085 3.51562 6.56722 3.51562 7.4707C3.51562 8.38544 3.8284 9.2601 4.40367 9.97485L2.5248 11.8538C1.50079 10.6825 0.878906 9.14827 0.878906 7.4707C0.878906 5.81297 1.49695 4.29642 2.5154 3.13685ZM2.63672 14.1211C1.66746 14.1211 0.878906 13.3325 0.878906 12.3633C0.878906 12.0353 0.970957 11.718 1.13897 11.4442C1.74773 12.4165 2.5793 13.2516 3.5521 13.8633C3.27914 14.0299 2.96326 14.1211 2.63672 14.1211ZM7.5 14.1211C5.83421 14.1211 4.31036 13.4998 3.14546 12.4761L5.02365 10.5979C5.73056 11.1722 6.59473 11.4844 7.5 11.4844C8.40527 11.4844 9.26947 11.1722 9.97635 10.5979L11.8546 12.476C10.6897 13.4998 9.16579 14.1211 7.5 14.1211ZM12.3633 14.1211C12.0367 14.1211 11.7209 14.0299 11.4479 13.8633C12.419 13.2526 13.2512 12.4182 13.861 11.4442C14.029 11.718 14.1211 12.0353 14.1211 12.3633C14.1211 13.3325 13.3325 14.1211 12.3633 14.1211ZM12.4752 11.8537L10.5963 9.97482C11.1716 9.2601 11.4844 8.38544 11.4844 7.4707C11.4844 6.56722 11.1773 5.70847 10.6121 5.00938L12.4846 3.13687C13.5031 4.29645 14.1211 5.813 14.1211 7.4707C14.1211 9.14824 13.4992 10.6825 12.4752 11.8537ZM13.873 3.53663C13.2645 2.5621 12.4373 1.73678 11.46 1.12907C11.7301 0.967207 12.0416 0.878906 12.3633 0.878906C13.3325 0.878906 14.1211 1.66746 14.1211 2.63672C14.1211 2.95705 14.0336 3.26728 13.873 3.53663Z" fill="#FF35F7"/>
</svg>
